# xmcd CD Database Entry
#
# Track frame offsets:
# 150
# 20110
# 39709
# 64287
# 84169
# 102044
# 119993
# 144029
# 166833
# 191987
#
# Disc length: 3023 seconds
#
# Revision: 1
# Processed by: cddbd v1.4PL0 Copyright (c) Steve Scherf et al.
# Submitted via: tcd 2.0b
#
DISCID=890bcd0a
DTITLE=The Arlenes - Stuck On Love
DYEAR=1900
DGENRE=
TTITLE0=Stuck On Love
TTITLE1=Into Every Life Falls A Little Rain
TTITLE2=Lonely Won't Leave Me Alone
TTITLE3=Tell Someone You Love Them
TTITLE4=Springboard
TTITLE5=Soft Touch
TTITLE6=Man Of Meagre Ambition
TTITLE7=So Sad To See You Gone
TTITLE8=I Just Smoulder
TTITLE9=Everybody's Mind Gets Broke Sometimes
EXTD=
EXTT0=
EXTT1=
EXTT2=
EXTT3=
EXTT4=
EXTT5=
EXTT6=
EXTT7=
EXTT8=
EXTT9=
PLAYORDER=
